<svg xmlns="http://www.w3.org/2000/svg" width="48" height="48" viewBox="0 0 48 48">
    <defs>
        <style>
            .cls-2{fill:#000001}
        </style>
    </defs>
    <g id="ico_alarm" transform="translate(16.5 15)">
        <path id="패스_7" d="M8.3 16H6.7a.9.9 0 1 0 0 1.8h1.6a.9.9 0 0 0 0-1.8" class="cls-2"/>
        <path id="패스_8" d="M14 11.38V8a6.5 6.5 0 0 0-5.691-6.444A.975.975 0 0 0 8.5 1a1 1 0 0 0-2 0 .975.975 0 0 0 .191.556A6.5 6.5 0 0 0 1 8v3.38a2.249 2.249 0 0 0 1.25 4.12h10.5A2.249 2.249 0 0 0 14 11.38M12.75 14H2.25a.75.75 0 0 1-.415-1.374l.665-.445V8a5 5 0 0 1 10 0v4.181l.665.445A.75.75 0 0 1 12.75 14" class="cls-2"/>
        <path id="패스_30" fill="#ec0e89" d="M1.75 3.5A1.75 1.75 0 1 1 3.5 1.75 1.751 1.751 0 0 1 1.75 3.5" transform="translate(14 -2.5)"/>
    </g>
</svg>
