<svg xmlns="http://www.w3.org/2000/svg" id="dark" width="48" height="48" viewBox="0 0 48 48">
    <defs>
        <style>
            .cls-2{fill:#070304}
        </style>
    </defs>
    <g id="dark-2" transform="translate(-.169)">
        <path id="패스_152" d="M29.529 29.034h1.119v5.138h.03l2.16-2.669h1.268l-1.868 2.228L34.316 37h-1.249l-1.489-2.488-.93 1.069V37h-1.119z" class="cls-2" transform="translate(0 .866)"/>
        <path id="패스_153" d="M13.969 29.644h1.909c2.259 0 3.548 1.249 3.548 3.647S18.137 37 15.938 37h-1.969zM15.8 36.05c1.579 0 2.429-.93 2.429-2.759s-.85-2.708-2.429-2.708h-.669v5.467z" class="cls-2" transform="translate(0 .866)"/>
        <path id="패스_154" d="M20.15 35.541c0-1.18 1-1.789 3.288-2.039-.01-.64-.24-1.2-1.049-1.2a3.023 3.023 0 0 0-1.59.559l-.429-.779a4.206 4.206 0 0 1 2.218-.72c1.37 0 2 .869 2 2.328V37h-.939l-.1-.63h-.03a2.732 2.732 0 0 1-1.749.76 1.518 1.518 0 0 1-1.619-1.589m3.288.04v-1.35c-1.629.2-2.179.61-2.179 1.23 0 .54.37.76.86.76a1.941 1.941 0 0 0 1.319-.64" class="cls-2" transform="translate(0 .866)"/>
        <path id="패스_155" d="M25.83 31.5h.939l.09.989h.03a1.9 1.9 0 0 1 1.559-1.129 1.368 1.368 0 0 1 .62.12l-.21 1a1.65 1.65 0 0 0-.549-.089c-.451 0-.99.309-1.34 1.179V37H25.83z" class="cls-2" transform="translate(0 .866)"/>
    </g>
    <g id="moon" transform="translate(-.506)">
        <path id="패스_156" fill="#ffec00" d="M24.912 13.433a6.809 6.809 0 1 0 2.927 13.093h.008a6.793 6.793 0 0 0 1.968-1.249 8.282 8.282 0 0 1-4.9-11.84" transform="translate(.05 -1.949)"/>
        <path id="패스_157" d="M31.952 24.6a.789.789 0 0 0-.585-.45 6.806 6.806 0 0 1-4.507-10.897.718.718 0 0 0 .14-.459.725.725 0 0 0-.278-.576.743.743 0 0 0-.351-.146A8.351 8.351 0 0 0 25.28 12a8.284 8.284 0 1 0 6.463 13.461c.036-.046.078-.085.113-.132a.738.738 0 0 0 .1-.731M27.9 26.573h-.008a6.808 6.808 0 1 1-2.926-13.092 8.278 8.278 0 0 0 4.9 11.839 6.792 6.792 0 0 1-1.966 1.253" class="cls-2" transform="translate(0 -2)"/>
    </g>
</svg>
