<svg height="48" viewBox="0 0 48 48" width="48" xmlns="http://www.w3.org/2000/svg"><g transform="translate(16.5 15)"><path d="m8.3 16h-1.6a.9.9 0 1 0 0 1.8h1.6a.9.9 0 0 0 0-1.8" fill="#fff"/><path d="m14 11.38v-3.38a6.5 6.5 0 0 0 -5.691-6.444.975.975 0 0 0 .191-.556 1 1 0 0 0 -2 0 .975.975 0 0 0 .191.556 6.5 6.5 0 0 0 -5.691 6.444v3.38a2.249 2.249 0 0 0 1.25 4.12h10.5a2.249 2.249 0 0 0 1.25-4.12m-1.25 2.62h-10.5a.75.75 0 0 1 -.415-1.374l.665-.445v-4.181a5 5 0 0 1 10 0v4.181l.665.445a.75.75 0 0 1 -.415 1.374" fill="#fff"/><path d="m1.75 3.5a1.75 1.75 0 1 1 1.75-1.75 1.751 1.751 0 0 1 -1.75 1.75" fill="#ec0e89" transform="translate(14 -2.5)"/></g></svg>