<svg height="48" viewBox="0 0 48 48" width="48" xmlns="http://www.w3.org/2000/svg"><g fill="#fff"><path d="m13.352 29.641h1.111v6.108h2.978v.938h-4.09z" transform="translate(-.353 .943)"/><path d="m18.272 29.762a.648.648 0 0 1 .7-.651.653.653 0 1 1 -.7.651m.154 1.637h1.092v5.266h-1.092z" transform="translate(.04 .966)"/><path d="m20.513 37.737a1.39 1.39 0 0 1 .765-1.149v-.048a.966.966 0 0 1 -.479-.871 1.3 1.3 0 0 1 .585-.977v-.038a1.8 1.8 0 0 1 -.69-1.4 1.9 1.9 0 0 1 2.039-1.9 2.191 2.191 0 0 1 .765.134h1.867v.824h-1.004a1.42 1.42 0 0 1 .346.967 1.8 1.8 0 0 1 -1.972 1.81 1.832 1.832 0 0 1 -.735-.158.7.7 0 0 0 -.286.556c0 .316.21.516.88.516h.967c1.244 0 1.9.384 1.9 1.284 0 1.015-1.072 1.837-2.757 1.837-1.264 0-2.183-.468-2.183-1.387m3.877-.278c0-.441-.344-.575-.986-.575h-.802a3.35 3.35 0 0 1 -.709-.077.949.949 0 0 0 -.45.766c0 .517.536.823 1.408.823.919 0 1.531-.45 1.531-.938m-.66-4.2a1 1 0 1 0 -1.992 0 1 1 0 1 0 1.992 0" transform="translate(.446 .871)"/><path d="m26.3 29.031h1.1v2.02l-.038 1.043a2.447 2.447 0 0 1 1.7-.832c1.12 0 1.617.746 1.617 2.087v3.313h-1.1v-3.179c0-.909-.267-1.273-.89-1.273a1.8 1.8 0 0 0 -1.292.718v3.734h-1.097z" transform="translate(.703 .969)"/><path d="m32.269 34.979v-2.662h-.769v-.825l.814-.057.125-1.456h.928v1.456h1.369v.881h-1.366v2.671c0 .632.22.957.766.957a1.561 1.561 0 0 0 .564-.125l.2.814a3.37 3.37 0 0 1 -1.034.192c-1.187 0-1.6-.738-1.6-1.848" transform="translate(.984 .929)"/><path d="m9.267 15.383a.682.682 0 0 0 -.683.683v1.94a.683.683 0 1 0 1.365 0v-1.94a.682.682 0 0 0 -.683-.683" transform="translate(14.732 9.311)"/><path d="m9.267 3.306a.682.682 0 0 0 .683-.683v-1.94a.683.683 0 1 0 -1.365 0v1.94a.682.682 0 0 0 .683.683" transform="translate(14.732 8)"/><path d="m4.087 13.591-1.373 1.372a.683.683 0 0 0 .966.965l1.373-1.372a.683.683 0 0 0 -.966-.966" transform="translate(14.214 9.142)"/><path d="m14.074 5.251a.685.685 0 0 0 .483-.2l1.372-1.371a.683.683 0 0 0 -.966-.966l-1.371 1.373a.683.683 0 0 0 .482 1.164" transform="translate(15.142 8.214)"/><path d="m3.306 9.268a.682.682 0 0 0 -.683-.682h-1.94a.682.682 0 1 0 0 1.364h1.94a.682.682 0 0 0 .683-.683" transform="translate(14 8.732)"/><path d="m18.006 8.586h-1.941a.682.682 0 1 0 0 1.364h1.942a.682.682 0 1 0 0-1.364" transform="translate(15.311 8.732)"/><path d="m4.086 5.051a.683.683 0 1 0 .966-.966l-1.372-1.371a.682.682 0 1 0 -.965.965z" transform="translate(14.214 8.214)"/><path d="m14.558 13.592a.683.683 0 0 0 -.966.965l1.372 1.372a.683.683 0 0 0 .966-.965z" transform="translate(15.142 9.142)"/></g><path d="m9.524 5.577a3.947 3.947 0 1 0 3.947 3.947 3.952 3.952 0 0 0 -3.947-3.947" fill="#ffec00" transform="translate(14.475 8.475)"/><path d="m9.631 4.319a5.312 5.312 0 0 0 0 10.625 5.312 5.312 0 0 0 0-10.625m0 9.259a3.947 3.947 0 1 1 3.947-3.948 3.952 3.952 0 0 1 -3.947 3.948" fill="#fff" transform="translate(14.368 8.368)"/></svg>