<svg height="48" viewBox="0 0 48 48" width="48" xmlns="http://www.w3.org/2000/svg"><g transform="translate(6 6.5)"><path d="m63.188 295.219h-28.088a1.694 1.694 0 0 0 -1.747 1.635v1.432a.667.667 0 0 0 .688.643h30.207a.667.667 0 0 0 .688-.643v-1.432a1.694 1.694 0 0 0 -1.748-1.635zm0 0" fill="#912c2c" transform="translate(-31.136 -273.841)"/><path d="m423.19 295.219h-2.2v3.71h3.193a.643.643 0 0 0 .643-.644v-1.432a1.634 1.634 0 0 0 -1.636-1.634zm0 0" fill="#7c1e1e" transform="translate(-391.025 -273.841)"/><path d="m49.4 265.777a1.64 1.64 0 0 1 1.671 1.594c0 1.267-1.537 1.938-3.323 1.692-1.669-.229-1.69-.951-3.379-.951s-1.69.951-3.379.951-1.69-.951-3.379-.951-1.69.951-3.379.951-1.69-.951-3.379-.951-1.69.951-3.379.951-1.69-.951-3.379-.951-1.711.721-3.379.951c-1.787.246-3.324-.425-3.323-1.692a1.64 1.64 0 0 1 1.67-1.594zm0 0" fill="#a0e557" transform="translate(-16.234 -246.501)"/><path d="m438.8 267.372a1.588 1.588 0 0 0 -1.569-1.594h-2.382v3.081a4.04 4.04 0 0 0 .829.2c1.677.25 3.122-.42 3.122-1.687zm0 0" fill="#93cc4a" transform="translate(-403.965 -246.501)"/><path d="m41.094 346.184h-32.161a1.381 1.381 0 0 0 -1.421 1.338 7.182 7.182 0 0 0 7.388 6.957h20.227a7.182 7.182 0 0 0 7.388-6.957 1.382 1.382 0 0 0 -1.421-1.338zm0 0" fill="#efa335" transform="translate(-7.013 -320.849)"/><path d="m370.145 346.184h-2.491v2.677a5.619 5.619 0 0 1 -5.619 5.619h2.491a6.957 6.957 0 0 0 6.957-6.957 1.338 1.338 0 0 0 -1.338-1.339zm0 0" fill="#fd8f31" transform="translate(-335.982 -320.849)"/><path d="m63.1 187.87h-28.091a1.694 1.694 0 0 1 -1.747-1.635v-1.435a.667.667 0 0 1 .688-.644h30.212a.667.667 0 0 1 .688.644v1.432a1.694 1.694 0 0 1 -1.75 1.638zm0 0" fill="#fc4e51" transform="translate(-31.056 -170.65)"/><path d="m410.305 184.16h-3.181v2.719a.991.991 0 0 1 -.991.991h3.181a1.635 1.635 0 0 0 1.635-1.635v-1.435a.644.644 0 0 0 -.644-.64zm0 0" fill="#ea3942" transform="translate(-377.155 -170.65)"/><path d="m51.576 235.41h-30.894a1.24 1.24 0 0 0 -1.283 1.2 1.215 1.215 0 0 0 1.25 1.151h19.629a1.389 1.389 0 0 1 .869.3l2.786 2.241a2.135 2.135 0 0 0 2.779-.112l2.151-2.056a1.38 1.38 0 0 1 .953-.375h1.727a1.24 1.24 0 0 0 1.282-1.2 1.215 1.215 0 0 0 -1.249-1.149zm0 0" fill="#fccf3f" transform="translate(-18.113 -218.203)"/><path d="m25.013 8.012c-16.3.006-17.5 10.129-17.5 11.562a1.382 1.382 0 0 0 1.421 1.338h32.16a1.382 1.382 0 0 0 1.421-1.338c0-1.434-1.206-11.557-17.502-11.562zm0 0" fill="#efa335" transform="translate(-7.013 -7.013)"/><path d="m42.515 19.536v-.013-.03-.015-.032-.065-.045-.008c-.006-.1-.016-.21-.031-.336-.3-2.587-2.629-10.975-17.462-10.98q-1.059 0-2.033.056c9.872.557 13.481 5.135 14.773 8.39a2.12 2.12 0 0 1 -2.1 2.827h-26.729a1.426 1.426 0 0 1 -1.305-.809 6.666 6.666 0 0 0 -.116 1.1 1.382 1.382 0 0 0 1.421 1.338h32.161a1.382 1.382 0 0 0 1.421-1.338zm0 0" fill="#fd8f31" transform="translate(-7.013 -7.013)"/><path d="m437.5 235.41h-2.657v2.835l.11-.112a1.254 1.254 0 0 1 .895-.375h1.621a1.2 1.2 0 0 0 1.2-1.2 1.173 1.173 0 0 0 -1.169-1.148zm0 0" fill="#efc03c" transform="translate(-403.965 -218.301)"/><path d="m34.2 24.283v-1.328a2.277 2.277 0 0 0 -.014-.238 2.583 2.583 0 0 0 .363-.261 2.08 2.08 0 0 0 .747-1.615 2.235 2.235 0 0 0 -.544-1.458 1.749 1.749 0 0 0 .416-1.157 1.782 1.782 0 0 0 -1.195-1.641 2.245 2.245 0 0 0 .221-.973v-.387a1.949 1.949 0 0 0 1.806-1.94 12.08 12.08 0 0 0 -2.754-7.029 14.025 14.025 0 0 0 -5.446-4.009 24.922 24.922 0 0 0 -9.8-1.747c-4.8 0-8.755.929-11.77 2.755a.528.528 0 1 0 .547.9c2.848-1.721 6.623-2.597 11.223-2.599a23.884 23.884 0 0 1 9.385 1.661 12.981 12.981 0 0 1 5.042 3.7 10.932 10.932 0 0 1 2.518 6.363.891.891 0 0 1 -.89.89h-32.108a.891.891 0 0 1 -.89-.89 9.5 9.5 0 0 1 .621-3.011 11.522 11.522 0 0 1 3.193-4.705.528.528 0 0 0 -.7-.788 12.245 12.245 0 0 0 -4.171 8.509 1.949 1.949 0 0 0 1.81 1.942v.387a2.247 2.247 0 0 0 .224.981 1.835 1.835 0 0 0 -.692.441 1.741 1.741 0 0 0 -.507 1.259 1.762 1.762 0 0 0 .4 1.09 2.236 2.236 0 0 0 -.544 1.457 2.08 2.08 0 0 0 .747 1.615 2.612 2.612 0 0 0 .388.275c-.007.074-.012.149-.012.224v1.327a1.949 1.949 0 0 0 -1.814 1.941 7.912 7.912 0 0 0 7.9 7.9h20.2a7.912 7.912 0 0 0 7.9-7.9 1.949 1.949 0 0 0 -1.8-1.941zm-.342-2.626a3.02 3.02 0 0 1 -2.324.456 3.789 3.789 0 0 1 -1.4-.483c-.086-.045-.173-.091-.263-.136l1.2-1.221a.806.806 0 0 1 .572-.24h1.718a1.777 1.777 0 0 0 .483-.066 1.176 1.176 0 0 1 .394.876 1.04 1.04 0 0 1 -.384.815zm-30.991-6.425h30.266v.381a1.2 1.2 0 0 1 -.52.99l-.027.018-.069.042-.024.014c-.03.016-.06.031-.092.044h-.005c-.035.015-.071.028-.107.039h-.012q-.046.014-.093.024l-.029.006-.082.013h-.031c-.037 0-.074.006-.112.006h-27.859a1.206 1.206 0 0 1 -1.2-1.2zm-.767 2.543a.768.768 0 0 1 .544-.23h.256a2.249 2.249 0 0 0 1.174.329h28.038l.1-.01.047-.006c.041-.006.082-.013.122-.021l.051-.012.083-.02.062-.018.066-.021.063-.021.107-.042.063-.029.058-.028.062-.032.069-.039.041-.023h.288a.708.708 0 0 1 .3 1.354.748.748 0 0 1 -.329.078h-1.724a1.869 1.869 0 0 0 -1.325.556l-2.141 2.179a1.5 1.5 0 0 1 -1.91.19l-.038-.027c-.033-.024-.066-.048-.1-.075l-2.773-2.376a1.86 1.86 0 0 0 -1.209-.447h-19.537a.707.707 0 0 1 -.314-.074.713.713 0 0 1 -.4-.628.693.693 0 0 1 .206-.507zm-.346 3.067a1.175 1.175 0 0 1 .39-.872 1.755 1.755 0 0 0 .467.063h19.535a.8.8 0 0 1 .522.193l2.193 1.879h-.137a2.335 2.335 0 0 1 -1.411-.429 3.587 3.587 0 0 0 -3.908 0 2.537 2.537 0 0 1 -2.822 0 3.587 3.587 0 0 0 -3.908 0 2.335 2.335 0 0 1 -1.411.429 2.335 2.335 0 0 1 -1.411-.429 3.356 3.356 0 0 0 -1.953-.576 3.778 3.778 0 0 0 -2.044.53 3.784 3.784 0 0 1 -1.4.483 3.02 3.02 0 0 1 -2.323-.456 1.039 1.039 0 0 1 -.382-.814zm26.346 12.23h-20.2a6.855 6.855 0 0 1 -6.847-6.847.891.891 0 0 1 .89-.89h23.68a.528.528 0 1 0 0-1.056h-22.75v-1.158a4.669 4.669 0 0 0 .952.1 5.446 5.446 0 0 0 .784-.058 4.8 4.8 0 0 0 1.739-.595 2.779 2.779 0 0 1 1.55-.408 2.335 2.335 0 0 1 1.411.429 3.356 3.356 0 0 0 1.954.579 3.356 3.356 0 0 0 1.954-.579 2.537 2.537 0 0 1 2.822 0 3.587 3.587 0 0 0 3.908 0 2.537 2.537 0 0 1 2.822 0 3.631 3.631 0 0 0 3.2.364 2.565 2.565 0 0 0 2.961-.5l.148-.15a4.117 4.117 0 0 1 .563.262 4.8 4.8 0 0 0 1.739.594 5.408 5.408 0 0 0 .784.058 4.661 4.661 0 0 0 .978-.1v1.162h-5.061a.528.528 0 1 0 0 1.056h5.972a.892.892 0 0 1 .891.89 6.855 6.855 0 0 1 -6.844 6.847zm0 0"/></g></svg>