<svg height="48" viewBox="0 0 48 48" width="48" xmlns="http://www.w3.org/2000/svg"><g transform="translate(1 9.501)"><path d="m51.379 22.887c1.152 3.541 6.5 2.529 6.5 5.934 0 3.11-9.594 5.039-12.712 5.2l-13 .241c-8.326 0-14.359-2.27-14.359-9.093s6.154-14.211 14.955-14.211c8.316-.001 16.495 5.414 18.616 11.929zm0 0" fill="#d87e35" transform="translate(-16.212 -9.519)"/><path d="m60.549 174.347a1.484 1.484 0 0 0 -1.632.32c-2.238 2.28-9.419 3.66-12.035 3.8l-13 .241a23.267 23.267 0 0 1 -9.616-1.639c1.7 4.283 6.971 5.8 13.779 5.8l13-.241c3.117-.161 12.712-2.089 12.712-5.2-.001-1.854-1.581-2.4-3.208-3.081zm0 0" fill="#c67030" transform="translate(-22.089 -158.123)"/><path d="m363.693 8.67a2.148 2.148 0 0 0 -.216 1.9.984.984 0 0 1 -.363 1.076l-5.773 4.182a1.565 1.565 0 1 0 1.852 2.522l5.719-4.255a.984.984 0 0 1 1.135-.025 2.148 2.148 0 0 0 1.881.364 1.7 1.7 0 0 0 .962-2.329 1.84 1.84 0 0 0 -1.7-1.126.451.451 0 0 1 -.425-.579 1.84 1.84 0 0 0 -.566-1.956 1.7 1.7 0 0 0 -2.506.226zm0 0" fill="#e2e2e2" transform="translate(-324.649 -6.825)"/><path d="m184.835 93.619a7.554 7.554 0 0 0 10.593 1.316 9.062 9.062 0 0 0 3.232-4.752 14.26 14.26 0 0 1 4.04-6.483 1.315 1.315 0 0 0 .218-1.743l-1.541-2.1a1.315 1.315 0 0 0 -1.728-.315 14.258 14.258 0 0 1 -7.4 1.916 9.063 9.063 0 0 0 -5.5 1.661 7.554 7.554 0 0 0 -1.914 10.5zm0 0" fill="#e88c38" transform="translate(-166.993 -71.768)"/><path d="m208.847 83.943-1.541-2.1a.912.912 0 0 0 -.627-.291 2.146 2.146 0 0 0 -1.894.736 19.793 19.793 0 0 0 -3.816 6.266 9.061 9.061 0 0 1 -3.233 4.752 7.834 7.834 0 0 1 -7.749.955 6.939 6.939 0 0 0 .773 1.346 7.553 7.553 0 0 0 10.592 1.316 9.06 9.06 0 0 0 3.233-4.752 14.254 14.254 0 0 1 4.044-6.485 1.315 1.315 0 0 0 .218-1.743zm0 0" fill="#d38231" transform="translate(-172.92 -73.755)"/><path d="m50.9 264.6h-42.151a1.25 1.25 0 0 0 0 2.5h2.443a.767.767 0 0 1 .71.477l.428 1.047a2.6 2.6 0 0 0 2.41 1.619h30.17a2.6 2.6 0 0 0 2.41-1.619l.427-1.047a.767.767 0 0 1 .71-.477h2.443a1.25 1.25 0 0 0 0-2.5zm0 0" fill="#e2e2e2" transform="translate(-6.826 -240.375)"/><path d="m386.373 264.6h-3.886a2.5 2.5 0 0 1 -2.5 2.5h-.03a2.5 2.5 0 0 0 -2.313 1.554l-.3.747a1.354 1.354 0 0 1 -1.254.842h4.3a2.6 2.6 0 0 0 2.41-1.619l.427-1.047a.767.767 0 0 1 .71-.477h2.443a1.25 1.25 0 0 0 0-2.5zm0 0" fill="#d8d6d4" transform="translate(-342.298 -240.375)"/><path d="m44.075 23.552h-7.09c.426-.142.851-.3 1.266-.461 2.713-1.084 4.089-2.359 4.089-3.789 0-2.2-1.78-2.936-3.351-3.587a10.633 10.633 0 0 1 -1.939-.96.674.674 0 1 0 -.764 1.11 11.634 11.634 0 0 0 2.186 1.094c1.609.667 2.52 1.1 2.52 2.342 0 .789-1.181 1.714-3.241 2.538a33.553 33.553 0 0 1 -6.505 1.713h-2.206a9.787 9.787 0 0 0 3.268-4.931 13.55 13.55 0 0 1 3.858-6.194 2.037 2.037 0 0 0 .656-1.752l3.843-2.859a.311.311 0 0 1 .358-.007 2.753 2.753 0 0 0 2.476.442 2.291 2.291 0 0 0 1.37-1.251 2.48 2.48 0 0 0 -.008-1.982 2.533 2.533 0 0 0 -2.027-1.518 2.534 2.534 0 0 0 -.834-2.385 2.48 2.48 0 0 0 -1.888-.6 2.293 2.293 0 0 0 -1.606.932 2.753 2.753 0 0 0 -.319 2.494.311.311 0 0 1 -.112.339l-3.885 2.81a2.038 2.038 0 0 0 -1.868.1 13.549 13.549 0 0 1 -7.065 1.826 9.709 9.709 0 0 0 -5.9 1.792 8.614 8.614 0 0 0 -3.416 5.4 7.751 7.751 0 0 0 1.359 6.043 7.623 7.623 0 0 0 1.215 1.3h-8.536c-5.185-1.044-7.705-3.63-7.705-7.9a13.414 13.414 0 0 1 3.985-9.194 14.29 14.29 0 0 1 10.3-4.344 21.11 21.11 0 0 1 12.741 4.473.674.674 0 0 0 .831-1.061 22.483 22.483 0 0 0 -13.576-4.76 15.628 15.628 0 0 0 -11.255 4.75 14.77 14.77 0 0 0 -4.374 10.135 8.24 8.24 0 0 0 4.8 7.9h-3.8a1.923 1.923 0 0 0 0 3.847h2.44a.092.092 0 0 1 .086.058l.428 1.045a3.265 3.265 0 0 0 3.034 2.038h30.17a3.265 3.265 0 0 0 3.034-2.038l.428-1.047a.093.093 0 0 1 .086-.058h2.443a1.923 1.923 0 0 0 0-3.847zm-5.214-18.183a1.662 1.662 0 0 0 .613-1.812 1.511 1.511 0 0 1 .113-1.314.945.945 0 0 1 .67-.391 1.129 1.129 0 0 1 .857.281 1.167 1.167 0 0 1 .364 1.244 1.125 1.125 0 0 0 1.068 1.454 1.168 1.168 0 0 1 1.078.721 1.128 1.128 0 0 1 .012.9.946.946 0 0 1 -.574.522 1.512 1.512 0 0 1 -1.288-.286 1.662 1.662 0 0 0 -1.913.043l-3.643 2.71-1.035-1.41zm-20.476 16.084a6.416 6.416 0 0 1 -1.116-5 7.272 7.272 0 0 1 2.888-4.556 8.412 8.412 0 0 1 5.108-1.53 14.829 14.829 0 0 0 7.735-2.009.665.665 0 0 1 .765.041l.008.007a.554.554 0 0 1 .074.082l1.541 2.1a.526.526 0 0 1 .057.1.664.664 0 0 1 -.188.747 14.826 14.826 0 0 0 -4.23 6.776 8.414 8.414 0 0 1 -2.99 4.415 7.517 7.517 0 0 1 -1.675.928h-5.295a6.336 6.336 0 0 1 -2.682-2.101zm25.691 4.6h-29.706a.674.674 0 0 0 0 1.348h25.744l-.243.6a1.923 1.923 0 0 1 -1.787 1.2h-30.17a1.923 1.923 0 0 1 -1.787-1.2l-.243-.6h5.35a.674.674 0 1 0 0-1.348h-9.311a.576.576 0 0 1 0-1.151h42.152a.576.576 0 0 1 0 1.151zm0 0"/></g></svg>