<svg height="48" viewBox="0 0 48 48" width="48" xmlns="http://www.w3.org/2000/svg"><g transform="translate(8.5 6)"><path d="m56.032 71.828h-24.958l4.146 29.134a1.5 1.5 0 0 0 1.48 1.288h13.7a1.5 1.5 0 0 0 1.484-1.288zm0 0" fill="#f3e8d7" transform="translate(-28.424 -66.778)"/><path d="m270.486 71.828-4.33 30.422h2.8a1.5 1.5 0 0 0 1.484-1.288l4.146-29.134zm0 0" fill="#e5d8c6" transform="translate(-246.977 -66.778)"/><path d="m67.946 7.5h-19.784a.594.594 0 0 0 -.581.474l-.909 4.4h22.764l-.909-4.4a.594.594 0 0 0 -.581-.474zm0 0" fill="#464c50" transform="translate(-42.925 -6.976)"/><path d="m68.777 9.186-.249-1.208a.594.594 0 0 0 -.581-.474h-3.547l.193.937c.158.766-.427 1.132-1.209 1.132h-16.133l-.579 2.809h22.765zm0 0" fill="#31363b" transform="translate(-42.925 -6.976)"/><path d="m35.332 57.823h-26.454a.874.874 0 0 1 -.878-.874v-2.317a.874.874 0 0 1 .874-.874h26.458a.874.874 0 0 1 .874.874v2.317a.874.874 0 0 1 -.874.874zm0 0" fill="#464c50" transform="translate(-6.976 -49.978)"/><path d="m35.336 53.758h-3.185v.728a1.884 1.884 0 0 1 -2.067 2.152h-20.765a.874.874 0 0 1 -.874-.874l-.438 1.185a.874.874 0 0 0 .874.874h26.455a.874.874 0 0 0 .874-.874v-2.317a.874.874 0 0 0 -.874-.874zm0 0" fill="#31363b" transform="translate(-6.98 -49.978)"/><path d="m37.07 182.287-2.6-18.28a.7.7 0 0 1 .7-.8h23.068a.7.7 0 0 1 .7.8l-2.6 18.28a.7.7 0 0 1 -.7.605h-17.87a.7.7 0 0 1 -.698-.605zm0 0" fill="#d38231" transform="translate(-31.574 -151.728)"/><path d="m292.338 163.2h-3.27l-2.8 19.689h3.47a.7.7 0 0 0 .7-.605l2.6-18.28a.7.7 0 0 0 -.7-.804zm0 0" fill="#c1752f" transform="translate(-265.673 -151.728)"/><path d="m151.825 234.032c-1.548-1.548-4.415-1.192-6.4.8s-2.344 4.855-.8 6.4 4.415 1.192 6.4-.8 2.348-4.852.8-6.4zm0 0" fill="#a0e557" transform="translate(-133.097 -216.681)"/><path d="m28.356 3.252h-1.75l-.486-2.357a1.126 1.126 0 0 0 -1.099-.895h-19.785a1.125 1.125 0 0 0 -1.1.895l-.484 2.357h-1.752a1.4 1.4 0 0 0 -1.4 1.4v2.319a1.4 1.4 0 0 0 1.4 1.4h.688l.39 2.739a1.229 1.229 0 0 0 -.606 1.242l2.6 18.28a1.239 1.239 0 0 0 .928 1.024l.37 2.6a2.036 2.036 0 0 0 2.01 1.744h13.7a2.036 2.036 0 0 0 2.006-1.741l.37-2.6a1.239 1.239 0 0 0 .929-1.022l2.6-18.28a1.229 1.229 0 0 0 -.607-1.242l.39-2.739h.688a1.4 1.4 0 0 0 1.4-1.4v-2.322a1.4 1.4 0 0 0 -1.4-1.402zm-1.516 8.948-2.6 18.28a.178.178 0 0 1 -.175.152h-5.054a.528.528 0 0 0 0 1.056h4.272l-.344 2.418a.976.976 0 0 1 -.961.834h-13.698a.976.976 0 0 1 -.961-.834l-.344-2.418h9.58a.528.528 0 1 0 0-1.056h-10.361a.178.178 0 0 1 -.175-.152l-2.601-18.28a.175.175 0 0 1 .041-.141.177.177 0 0 1 .125-.059h23.09a.177.177 0 0 1 .124.06.175.175 0 0 1 .042.14zm-23.184-3.827h22.944l-.366 2.574h-22.212zm25.044-1.402a.346.346 0 0 1 -.346.346h-26.454a.347.347 0 0 1 -.346-.346v-2.317a.347.347 0 0 1 .346-.346h4.725a.528.528 0 0 0 0-1.056h-1.895l.442-2.144a.066.066 0 0 1 .065-.053h19.784a.066.066 0 0 1 .065.053l.442 2.144h-16.447a.528.528 0 1 0 0 1.056h19.275a.346.346 0 0 1 .346.346zm0 0"/><path d="m145.209 226.758-.011-.01c-1.754-1.736-4.951-1.376-7.136.809a6.39 6.39 0 0 0 -1.875 3.674 4.075 4.075 0 0 0 1.079 3.475 3.937 3.937 0 0 0 2.839 1.114 5.162 5.162 0 0 0 .631-.04 6.393 6.393 0 0 0 3.675-1.875c2.19-2.191 2.548-5.4.8-7.149zm-7.974 4.6a5.335 5.335 0 0 1 1.573-3.058 5.178 5.178 0 0 1 3.549-1.608 3.126 3.126 0 0 1 1.5.358 5.672 5.672 0 0 0 -2.681 3.1c-.364 1.335-2.34 2.813-3.424 3.5a3.164 3.164 0 0 1 -.517-2.289zm6.434 1.8a5.334 5.334 0 0 1 -3.058 1.573 3.267 3.267 0 0 1 -2.048-.358c1.088-.719 3.173-2.279 3.629-3.951a4.981 4.981 0 0 1 2.515-2.642c1.045 1.397.624 3.72-1.038 5.383zm0 0" transform="translate(-126.11 -209.783)"/></g></svg>