<svg height="48" viewBox="0 0 48 48" width="48" xmlns="http://www.w3.org/2000/svg"><g transform="translate(6 6)"><path d="m13.934 18.85-.082-.26a.564.564 0 0 1 .361-.7l31.369-10.366a.564.564 0 0 1 .714.366l.352 1.117a.564.564 0 0 1 -.375.709l-31.64 9.5a.564.564 0 0 1 -.699-.366zm0 0" fill="#e88c38" transform="translate(-12.853 -6.968)"/><path d="m21.722 115.242.038.27a.564.564 0 0 0 .628.482l32.78-4.1a.564.564 0 0 0 .488-.637l-.161-1.16a.564.564 0 0 0 -.644-.48l-32.656 5a.564.564 0 0 0 -.473.625zm0 0" fill="#e88c38" transform="translate(-20.189 -101.899)"/><g fill="#e2e2e2"><path d="m194.385 81.106a4.42 4.42 0 0 1 .525-2.21 8.042 8.042 0 0 0 .727-2.72.39.39 0 0 0 -.511-.405l-.867.287a.389.389 0 0 0 -.266.338 4.4 4.4 0 0 1 -.506 1.724 6.746 6.746 0 0 0 0 5.975 4.916 4.916 0 0 1 0 4.421 6.154 6.154 0 0 0 -.7 2.987.8.8 0 1 0 1.6 0 4.419 4.419 0 0 1 .525-2.21 6.749 6.749 0 0 0 0-5.975 4.419 4.419 0 0 1 -.527-2.212zm0 0" transform="translate(-179.234 -70.425)"/><path d="m143.674 97.489a4.423 4.423 0 0 1 .525-2.21 6.808 6.808 0 0 0 .531-1.424.39.39 0 0 0 -.5-.462l-.965.319a.39.39 0 0 0 -.241.23c-.074.192-.159.372-.247.56a6.748 6.748 0 0 0 0 5.975 4.916 4.916 0 0 1 0 4.421 6.154 6.154 0 0 0 -.7 2.987.8.8 0 1 0 1.6 0 4.422 4.422 0 0 1 .525-2.21 6.749 6.749 0 0 0 0-5.975 4.422 4.422 0 0 1 -.528-2.211zm0 0" transform="translate(-132.089 -86.808)"/><path d="m92.963 115.248a4.42 4.42 0 0 1 .525-2.21v-.007a.39.39 0 0 0 -.475-.535l-1.06.35a.387.387 0 0 0 -.244.235 6.839 6.839 0 0 0 .352 5.155 4.917 4.917 0 0 1 0 4.421 6.153 6.153 0 0 0 -.7 2.988.8.8 0 1 0 1.6 0 4.42 4.42 0 0 1 .525-2.211 6.748 6.748 0 0 0 0-5.975 4.419 4.419 0 0 1 -.523-2.211zm0 0" transform="translate(-84.943 -104.566)"/><path d="m42.248 132.9a5.149 5.149 0 0 1 .082-.973.39.39 0 0 0 -.5-.445l-.869.287a.391.391 0 0 0 -.266.332 7.778 7.778 0 0 0 -.039.8 6.155 6.155 0 0 0 .7 2.988 4.915 4.915 0 0 1 0 4.421 6.154 6.154 0 0 0 -.7 2.988.8.8 0 1 0 1.6 0 4.42 4.42 0 0 1 .525-2.211 6.748 6.748 0 0 0 0-5.975 4.418 4.418 0 0 1 -.533-2.212zm0 0" transform="translate(-37.794 -122.219)"/></g><path d="m7.795 279.742a.3.3 0 0 0 -.3.335 16.449 16.449 0 0 0 7.325 12.479.573.573 0 0 0 .141.064v1.215a1.082 1.082 0 0 0 1.082 1.082h13.724a1.082 1.082 0 0 0 1.082-1.082v-1.218a.564.564 0 0 0 .135-.062 16.449 16.449 0 0 0 7.325-12.479.3.3 0 0 0 -.3-.335zm0 0" fill="#87a4f4" transform="translate(-6.963 -260.073)"/><path d="m278.718 279.742h-4.073a.3.3 0 0 1 .3.335 16.448 16.448 0 0 1 -7.325 12.479.56.56 0 0 1 -.135.062v1.218a1.082 1.082 0 0 1 -1.082 1.082h4.073a1.082 1.082 0 0 0 1.082-1.082v-1.218a.565.565 0 0 0 .135-.062 16.449 16.449 0 0 0 7.325-12.479.3.3 0 0 0 -.3-.335zm0 0" fill="#7c9ce5" transform="translate(-247.675 -260.073)"/><path d="m129.525 464.1v-1.217h-15.9v1.217a1.082 1.082 0 0 0 1.082 1.082h13.728a1.082 1.082 0 0 0 1.09-1.082zm0 0" fill="#6b97d6" transform="translate(-105.639 -430.337)"/><path d="m267.492 464.1a1.082 1.082 0 0 1 -1.082 1.082h4.073a1.082 1.082 0 0 0 1.082-1.082v-1.217h-4.073zm0 0" fill="#5884ba" transform="translate(-247.679 -430.337)"/><path d="m35.988 9.28-.161-1.16a1.09 1.09 0 0 0 -1.245-.927l-18.873 2.886a3.971 3.971 0 0 1 .444-1.379c.036-.076.073-.157.11-.244l17.309-5.2a1.09 1.09 0 0 0 .728-1.375l-.355-1.117a1.09 1.09 0 0 0 -1.382-.708l-5.163 1.704a.527.527 0 0 0 .33 1l5.158-1.7a.034.034 0 0 1 .029 0 .034.034 0 0 1 .018.022l.358 1.118a.037.037 0 0 1 -.025.047l-16.586 4.979.02-.08.018-.073.03-.13.018-.083.025-.124.019-.1.02-.112.019-.116c0-.02.007-.04.01-.059l8.529-2.815a.527.527 0 0 0 -.33-1l-8.252 2.726a.914.914 0 0 0 -1.081-.413l-.867.286a.912.912 0 0 0 -.626.8c-.005.065-.012.127-.019.187l-1.16.383a.912.912 0 0 0 -1.08-.413l-.965.31a.913.913 0 0 0 -.567.54c-.065.167-.141.33-.215.488l-1.239.409a.9.9 0 0 0 -.108-.151.916.916 0 0 0 -.973-.263l-1.06.35a.908.908 0 0 0 -.573.557c-.054.148-.1.3-.141.449l-1.185.391a.926.926 0 0 0 -.191-.232.907.907 0 0 0 -.89-.18l-.868.293a.919.919 0 0 0 -.624.778l-.018.2-1.161.384a1.1 1.1 0 0 0 -.697 1.367l.082.26a1.088 1.088 0 0 0 .583.659 1.085 1.085 0 0 0 -.15.716l.038.27a1.1 1.1 0 0 0 1.081.94 1.117 1.117 0 0 0 .135-.008l1.072-.134a3.8 3.8 0 0 1 .218 1.4 3.889 3.889 0 0 1 -.475 1.987 7.867 7.867 0 0 0 -.5 1.276h-1.753a.831.831 0 0 0 -.831.911 16.989 16.989 0 0 0 7.467 12.805v.9a1.61 1.61 0 0 0 1.608 1.608h13.725a1.61 1.61 0 0 0 1.608-1.608v-.9a16.991 16.991 0 0 0 7.458-12.8.831.831 0 0 0 -.827-.914h-14.91l.024-.051a6.691 6.691 0 0 0 .747-3.217 6.571 6.571 0 0 0 -.655-3.013l18.8-2.354a1.09 1.09 0 0 0 .944-1.232zm-34.405 2.443-.082-.26a.037.037 0 0 1 .024-.046l.819-.271v.128c0 .038.005.077.009.115a.049.049 0 0 0 0 .006c0 .043.007.087.011.129l-.743.223a.037.037 0 0 1 -.038-.024zm.55 1.849a.038.038 0 0 1 -.041-.032l-.037-.27a.037.037 0 0 1 .031-.042l.66-.1.007.018c.019.05.038.1.058.146l.01.024.066.156v.005zm12.228-4.778c.055-.161.115-.312.177-.456s.127-.281.19-.416l.02-.043.031-.066.023-.049.057-.125.008-.017.05-.116.015-.034.054-.132.014-.034.041-.112.015-.044c.015-.045.03-.09.044-.137l.015-.051c.01-.036.021-.072.03-.109l.014-.055q.019-.075.035-.153l.005-.023v-.01a4.862 4.862 0 0 0 .076-.507l.581-.192-.028.221-.005.035-.031.191c0 .018-.006.036-.009.053-.013.073-.027.147-.043.219v.012c-.015.068-.03.135-.047.2l-.016.063-.052.2-.007.023q-.029.1-.061.2l-.013.04q-.035.108-.072.214l-.005.014c-.027.076-.055.151-.085.225-.062.156-.123.3-.181.419a4.914 4.914 0 0 0 -.575 2.434v.372c0 .043 0 .084.008.126v.029a4.594 4.594 0 0 0 .176.975v.01q.043.142.092.272c.086.228.183.436.282.648a5.629 5.629 0 0 1 .647 2.763 5.631 5.631 0 0 1 -.647 2.764c-.075.16-.152.324-.224.5h-.6a8.327 8.327 0 0 1 .352-.828 4.916 4.916 0 0 0 .588-2.427 4.917 4.917 0 0 0 -.575-2.435 7.525 7.525 0 0 1 -.4-.963 5.653 5.653 0 0 1 -.246-1.555v-.241a5.7 5.7 0 0 1 .282-1.892zm-1.774 10.3a6.692 6.692 0 0 0 .747-3.212 6.589 6.589 0 0 0 -.47-2.59l.611-.076c.1.251.2.473.3.68a3.887 3.887 0 0 1 .475 1.986 3.889 3.889 0 0 1 -.475 1.987 7.843 7.843 0 0 0 -.5 1.276h-.71zm-.175-6.807-.011-.026-.029-.072-.026-.065-.041-.111-.009-.027c-.032-.1-.061-.2-.086-.3l.861-.132v.019q.016.149.037.288v.03q.023.146.05.282v.023zm.618-4.668.8-.265-.009.018-.036.077-.011.023c-.076.162-.157.334-.236.521l-.003.007-.072.177v.013l-.742.223a7.157 7.157 0 0 0 .309-.796zm-.816 2.051.916-.275a7.546 7.546 0 0 0 -.1 1.1l-.918.14a4.284 4.284 0 0 1 .102-.967zm-1.651.169a5.061 5.061 0 0 1 .323-1.29v-.012c.023-.059.047-.116.071-.172l.012-.028.031-.061.012-.027.034-.076.008-.017.029-.063.081-.174c.076-.161.161-.342.238-.534l.662-.219a6.92 6.92 0 0 1 -.42 1.059l-.011.024-.014.03-.033.071-.028.06-.02.043-.037.08-.008.018a4.734 4.734 0 0 0 -.436 2.132c0 .22.009.419.026.6v.007c0 .026.005.051.008.076l.009.085.015.106c0 .012 0 .025.005.037a4.337 4.337 0 0 0 .28 1.006l.012.03.015.036.037.087.007.016c.047.107.1.209.141.308l.017.036a5.631 5.631 0 0 1 .647 2.764 5.629 5.629 0 0 1 -.647 2.764c-.076.16-.152.324-.224.5h-.6a8.392 8.392 0 0 1 .352-.828 4.915 4.915 0 0 0 .575-2.435 4.917 4.917 0 0 0 -.575-2.435c-.087-.185-.175-.373-.257-.576a5.069 5.069 0 0 1 -.353-1.441 7.3 7.3 0 0 1 -.035-.74 7.138 7.138 0 0 1 .051-.849zm-.353 4.057a3.89 3.89 0 0 1 .475 1.986 3.891 3.891 0 0 1 -.475 1.987 7.852 7.852 0 0 0 -.5 1.276h-.71l.024-.051a6.689 6.689 0 0 0 .748-3.212 6.834 6.834 0 0 0 -.314-2.163l.637-.08c.036.087.077.172.116.255zm-1.3-1.46c-.035-.077-.068-.154-.1-.231l.771-.118c0 .009 0 .017.005.026.015.077.031.153.048.226l.012.05q.027.114.057.221v.018l-.67.084-.018-.039v-.007c-.033-.082-.069-.158-.103-.233zm-.022-3.451.83-.274c-.02.069-.039.141-.057.214v.016c-.024.1-.046.2-.066.3v.018l-.019.1-.912.274a3.8 3.8 0 0 1 .224-.648zm.577 1.509v.188c0 .121 0 .238.007.352l-.9.138q-.016-.185-.019-.4zm-1.393-2.254h.009v.007h-.008zm-1.119 2.26v-.1-.064c0-.041 0-.082.007-.121v-.038c0-.042.006-.083.009-.124v-.029c0-.042.008-.082.012-.122v-.023c.013-.113.028-.218.044-.316 0-.024.008-.048.012-.071l.011-.057.022-.108a4.8 4.8 0 0 1 .159-.568l.7-.23a4.742 4.742 0 0 0 -.445 2.154 4.744 4.744 0 0 0 .447 2.159l.069.136.063.134.006.013.077.164v.007q.043.093.085.189a5.463 5.463 0 0 1 .475 2.39 5.635 5.635 0 0 1 -.647 2.764c-.076.16-.152.324-.224.5h-.6a8.326 8.326 0 0 1 .352-.828 4.915 4.915 0 0 0 .575-2.434 4.914 4.914 0 0 0 -.562-2.432l-.083-.177-.061-.133a5.29 5.29 0 0 1 -.395-1.215v-.006a6.341 6.341 0 0 1 -.1-1.063v-.165c0-.057-.01-.124-.008-.186zm-.23 3.555a3.741 3.741 0 0 1 .4 1.821 3.891 3.891 0 0 1 -.475 1.987 7.867 7.867 0 0 0 -.5 1.276h-.71l.024-.051a6.692 6.692 0 0 0 .738-3.208 7.233 7.233 0 0 0 -.192-1.732zm-.583-1.446.005.017.061.2.007.021.068.2-.617.077c-.064-.148-.128-.287-.19-.419zm-.2-1.035-.149.023.146-.044c.005.006.006.013.007.02zm-.96-1.086v-.025q0-.092.01-.18v-.013l.932-.308v.043c0 .034 0 .067-.007.1q-.006.095-.01.192v.163l-.918.276v-.058c-.006-.063-.005-.128-.003-.191zm-1.51 1.329v-.005c-.03-.173-.051-.352-.066-.539v-.009c0-.039-.006-.079-.008-.118v-.043-.09-.05-.093-.045-.141-.136-.1c0-.146.012-.288.025-.426l.569-.188-.016.135c0 .015 0 .029-.005.044l-.014.161v.054c0 .053-.006.108-.008.163v.509a4.71 4.71 0 0 0 .5 2.061l.007.016.065.139v.007l.08.172c.085.183.169.375.245.584a5.617 5.617 0 0 1 .317 2 5.631 5.631 0 0 1 -.661 2.764c-.076.16-.152.324-.224.5h-.6a8.326 8.326 0 0 1 .352-.828 4.919 4.919 0 0 0 .575-2.435 4.912 4.912 0 0 0 -.574-2.431l-.044-.094-.015-.033-.046-.1-.01-.021-.049-.11-.006-.014-.052-.12v-.005a5.377 5.377 0 0 1 -.2-.558 4.973 4.973 0 0 1 -.133-.578zm27.33 8.383a15.883 15.883 0 0 1 -7.027 11.823h-10.782a.527.527 0 0 0 0 1.053h10.368v.69a.555.555 0 0 1 -.555.555h-13.728a.556.556 0 0 1 -.555-.555v-.69h2.02a.527.527 0 1 0 0-1.053h-2.441a15.883 15.883 0 0 1 -7.022-11.823zm4.138-10.747a.036.036 0 0 1 -.025.014l-19.09 2.391a3.588 3.588 0 0 1 -.127-.711l19.046-2.913a.035.035 0 0 1 .028.007.035.035 0 0 1 .015.024l.161 1.16a.035.035 0 0 1 -.008.028zm0 0"/></g></svg>