<svg height="48" viewBox="0 0 48 48" width="48" xmlns="http://www.w3.org/2000/svg" xmlns:xlink="http://www.w3.org/1999/xlink"><clipPath id="a"><path d="m0 0h33.969v36.886h-33.969z"/></clipPath><g clip-path="url(#a)" transform="translate(4 5)"><path d="m25.048 4.045a34.4 34.4 0 0 0 -20.953 16.081l27.846 16.069a.977.977 0 0 0 1.432-1.1z" fill="#efa335"/><path d="m21.038 5.385 7.778 29.009 3.123 1.8a.978.978 0 0 0 1.433-1.1l-8.325-31.049a34.91 34.91 0 0 0 -4.009 1.34" fill="#fd8f31"/><g fill="#fc4e51"><path d="m24.3 10.33a1.87 1.87 0 1 1 -2.29-1.323 1.871 1.871 0 0 1 2.29 1.323"/><path d="m20.15 23.8a1.691 1.691 0 1 1 -2.072-1.2 1.691 1.691 0 0 1 2.072 1.2z"/><path d="m28 21.431a1.771 1.771 0 1 1 -2.169-1.252 1.771 1.771 0 0 1 2.169 1.252"/></g><path d="m26.958 26.679-.4.106a1.922 1.922 0 0 0 -1.358 2.356.518.518 0 0 0 .635.367l.5-.135a.2.2 0 0 1 .245.141v.015l.168.79a.436.436 0 0 0 .515.337l.024-.006.956-.257a.435.435 0 0 0 .309-.532l-.007-.024-.251-.768a.2.2 0 0 1 .124-.254l.014-.005.5-.134a.519.519 0 0 0 .367-.636 1.923 1.923 0 0 0 -2.349-1.361" fill="#dfede7"/><path d="m16.6 17.069.125.465a2.266 2.266 0 0 0 2.775 1.6.61.61 0 0 0 .432-.749l-.157-.587a.241.241 0 0 1 .17-.294h.011l.934-.2a.513.513 0 0 0 .4-.609.25.25 0 0 0 -.007-.026l-.3-1.128a.513.513 0 0 0 -.628-.363l-.026.008-.907.3a.241.241 0 0 1 -.3-.155v-.012l-.158-.59a.611.611 0 0 0 -.764-.429 2.267 2.267 0 0 0 -1.6 2.774" fill="#dfede7"/><path d="m23.272.622-.283.078a36.372 36.372 0 0 0 -22.153 17.01l-.02.035a1.974 1.974 0 0 0 .72 2.685l1.751 1.011a1.986 1.986 0 0 0 2.705-.726l.008-.015.009-.014a1.651 1.651 0 0 1 2.258-.6l.033.014 3.6 2.189a1.016 1.016 0 0 0 1.4-.337l.014-.023a1.074 1.074 0 0 0 -.365-1.451l-2.6-1.574a1.062 1.062 0 0 1 -.4-1.4 1.04 1.04 0 0 1 1.411-.415l.044.025.816.5a1.059 1.059 0 0 0 1.428-.292 1.042 1.042 0 0 0 -.281-1.445l-.042-.026-.592-.359a1.657 1.657 0 0 1 -.227-2.665 30.386 30.386 0 0 1 12.031-6.36l.261-.07a1.962 1.962 0 0 0 1.412-2.389l-.01-.024-.528-1.969a1.968 1.968 0 0 0 -2.4-1.393" fill="#fccf3f"/><path d="m23.276.621-.283.079q-.987.264-1.947.58l1.548 5.777q.957-.326 1.945-.591l.262-.07a1.962 1.962 0 0 0 1.405-2.396v-.018l-.528-1.967a1.97 1.97 0 0 0 -2.4-1.394" fill="#efa335"/><path d="m23.138.08-.29.078a36.931 36.931 0 0 0 -22.493 17.272l-.019.034a2.528 2.528 0 0 0 .923 3.444l1.751 1.011a2.544 2.544 0 0 0 3.467-.93l.018-.032a1.079 1.079 0 0 1 .659-.5h.012a1.1 1.1 0 0 1 .846.126l3.6 2.19a1.565 1.565 0 0 0 1.208.18h.017a1.561 1.561 0 0 0 .955-.734 1.632 1.632 0 0 0 -.563-2.2l-2.6-1.574a.507.507 0 0 1 -.2-.66.485.485 0 0 1 .677-.184l.816.5a1.608 1.608 0 0 0 2.187-.458 1.593 1.593 0 0 0 -.5-2.26l-.592-.359a1.091 1.091 0 0 1 -.525-.85 1.078 1.078 0 0 1 .375-.918 29.659 29.659 0 0 1 11.818-6.256l.257-.069a2.519 2.519 0 0 0 1.8-3.072l-.006-.021-.528-1.968a2.531 2.531 0 0 0 -3.07-1.79m2.527 4.046a1.4 1.4 0 0 1 -.144 1.074 1.384 1.384 0 0 1 -.861.652l-.265.07a30.776 30.776 0 0 0 -12.248 6.478 2.212 2.212 0 0 0 -.221 3.121 2.166 2.166 0 0 0 .523.44l.591.359a.486.486 0 0 1 .162.667l-.012.018a.5.5 0 0 1 -.677.127l-.816-.5a1.607 1.607 0 0 0 -1.243-.177 1.584 1.584 0 0 0 -.987.782 1.612 1.612 0 0 0 .6 2.144l2.6 1.574a.518.518 0 0 1 .176.689.467.467 0 0 1 -.284.217.46.46 0 0 1 -.355-.053l-3.612-2.184a2.195 2.195 0 0 0 -1.7-.253l-.026.006a2.184 2.184 0 0 0 -1.33 1.02l-.006.011-.005.007-.009.017a1.43 1.43 0 0 1 -1.947.523l-1.75-1.011a1.411 1.411 0 0 1 -.519-1.925l.018-.032a35.818 35.818 0 0 1 21.82-16.755l.278-.074a1.416 1.416 0 0 1 1.718 1z"/><path d="m26.122 8.054a.557.557 0 0 0 -.393.681l7.106 26.5a.421.421 0 0 1 -.617.476l-23.971-13.833a.557.557 0 0 0 -.556.964l23.97 13.834a1.51 1.51 0 0 0 1.156.159 1.548 1.548 0 0 0 .548-.272 1.511 1.511 0 0 0 .548-1.614l-7.1-26.5a.558.558 0 0 0 -.683-.394"/><path d="m21.866 8.474a2.427 2.427 0 1 0 2.973 1.716 2.427 2.427 0 0 0 -2.973-1.716m.969 3.613a1.315 1.315 0 1 1 .935-1.608 1.314 1.314 0 0 1 -.935 1.608"/><path d="m16.35 24.815a2.248 2.248 0 1 0 1.589-2.754 2.248 2.248 0 0 0 -1.589 2.754m1.877-1.679a1.135 1.135 0 1 1 -.8 1.39 1.136 1.136 0 0 1 .8-1.39"/><path d="m25.689 19.637a2.327 2.327 0 1 0 2.85 1.646 2.328 2.328 0 0 0 -2.85-1.646m.917 3.421a1.214 1.214 0 1 1 .858-1.487 1.215 1.215 0 0 1 -.858 1.487"/><path d="m29.852 27.894a2.483 2.483 0 0 0 -3.038-1.753l-.395.106a2.481 2.481 0 0 0 -1.753 3.037 1.077 1.077 0 0 0 1.318.761l.141-.038.091.427a.991.991 0 0 0 1.175.765l.053-.012.956-.257a.993.993 0 0 0 .7-1.215c0-.017-.01-.034-.016-.051l-.135-.414.142-.038a1.077 1.077 0 0 0 .759-1.318m-1.549.377a.761.761 0 0 0 -.538.931l.012.038.211.648-.708.19-.142-.666a.759.759 0 0 0 -.9-.585l-.037.008-.463.124a1.366 1.366 0 0 1 .975-1.637l.4-.106a1.368 1.368 0 0 1 1.664.93z"/><path d="m18.058 13.755a2.827 2.827 0 0 0 -2 3.458l.125.466a2.826 2.826 0 0 0 3.458 2 1.171 1.171 0 0 0 .827-1.431l-.072-.268.606-.128a1.069 1.069 0 0 0 .824-1.267c0-.019-.008-.038-.013-.057l-.3-1.127a1.068 1.068 0 0 0 -1.309-.756l-.055.016-.588.192-.072-.267a1.169 1.169 0 0 0 -1.432-.827m2.393 1.974.279 1.04-.888.188a.8.8 0 0 0 -.613.951l.01.039.158.59a.054.054 0 0 1 -.039.067 1.712 1.712 0 0 1 -2.094-1.208l-.125-.466a1.714 1.714 0 0 1 1.209-2.1.056.056 0 0 1 .068.039l.158.59a.8.8 0 0 0 .983.561l.034-.01z"/></g></svg>